<svg id="Component_8_1" data-name="Component 8 – 1" xmlns="http://www.w3.org/2000/svg" xmlns:xlink="http://www.w3.org/1999/xlink" width="448.623" height="84.001" viewBox="0 0 448.623 84.001">
  <defs>
    <linearGradient id="linear-gradient" x1="0.022" x2="0.97" y2="0.975" gradientUnits="objectBoundingBox">
      <stop offset="0" stop-color="#6899d2"/>
      <stop offset="1" stop-color="#152940"/>
    </linearGradient>
  </defs>
  <path id="Path_219" data-name="Path 219" d="M21.583,15.994,37.075,53.228a2.438,2.438,0,0,0,.9,1.1,2.479,2.479,0,0,0,1.43.366,2.8,2.8,0,0,0,.9-.133,2.871,2.871,0,0,0,1.2-.831,2.258,2.258,0,0,0,.2-2.327L23.877,8.58a2.326,2.326,0,0,0-2.261-1.463A2.311,2.311,0,0,0,19.322,8.58L1.669,51.466a2.764,2.764,0,0,0-.2.9A2.157,2.157,0,0,0,3.2,54.558H3.165a2.012,2.012,0,0,0,.8.133,1.991,1.991,0,0,0,1-.2,2.806,2.806,0,0,0,1.3-1.263l4.887-11.835L16,29.624l2.793-6.815ZM87.952,35.741V9.345a2.41,2.41,0,1,0-4.821,0V36.772a12.2,12.2,0,0,1-1.263,5.053,13.939,13.939,0,0,1-2.892,4.289,13.433,13.433,0,0,1-4.388,2.759A13.513,13.513,0,0,1,55.97,36.34V9.411a2.126,2.126,0,0,0-2.394-2.427A2.136,2.136,0,0,0,51.15,9.411V36.905c0,.1,0,.166-.033.2s0,.133.066.3a20.081,20.081,0,0,0,1.729,6.616A18.017,18.017,0,0,0,69.568,54.658a17.6,17.6,0,0,0,12.966-5.386,17.631,17.631,0,0,0,5.419-12.966v-.266a.648.648,0,0,0-.033-.266ZM134.74,49.305V31.087a2.136,2.136,0,0,0-2.427-2.427h-13a2.126,2.126,0,0,0-2.394,2.427,2.116,2.116,0,0,0,2.394,2.394h10.605v14.4a19.146,19.146,0,0,1-8.411,1.961,18.371,18.371,0,0,1-13.5-5.585,18.342,18.342,0,0,1-5.552-13.464,18.342,18.342,0,0,1,5.552-13.464,18.371,18.371,0,0,1,13.5-5.585,18.9,18.9,0,0,1,9.575,2.626,2.1,2.1,0,0,0,1.13.266h.366a1.149,1.149,0,0,0,.4-.1l-.033.033a3.142,3.142,0,0,0,.8-.432,2.361,2.361,0,0,0,.632-.765c.1-.2.166-.366.233-.532a1.61,1.61,0,0,0,.1-.6,2.255,2.255,0,0,0-1.2-1.961,22.766,22.766,0,0,0-5.818-2.493,23.963,23.963,0,0,0-6.217-.8A22.87,22.87,0,0,0,104.62,14a22.976,22.976,0,0,0-7.015,16.855A22.923,22.923,0,0,0,104.62,47.71a22.892,22.892,0,0,0,16.855,6.981,23.266,23.266,0,0,0,6.283-.8,24.527,24.527,0,0,0,5.785-2.427,2.069,2.069,0,0,0,.9-.8,2.317,2.317,0,0,0,.332-1.263Zm47.453,2.959V9.345a2.22,2.22,0,0,0-1.7-2.294l.033.033a1.734,1.734,0,0,0-.765-.166A2.139,2.139,0,0,0,177.8,8.082V8.048l-3.59,5.153-3.557,5.153-3.424,4.987-3.458,5.02-3.59-5.12-3.391-4.887-3.524-5.02-3.723-5.319v.033a2.046,2.046,0,0,0-1.895-1.13,1.641,1.641,0,0,0-.831.166,2.2,2.2,0,0,0-1.629,2.294V52.3c0,1.6.8,2.36,2.427,2.36a2.092,2.092,0,0,0,2.394-2.36V17.124l2.261,3.291,1.995,2.859L156.162,26l1.995,2.859,1.762,2.527,1.862,2.693v-.033a2.19,2.19,0,0,0,.864.8,2.364,2.364,0,0,0,1.064.233,2.244,2.244,0,0,0,2.061-1.031l-.033.033,3.025-4.455,3.025-4.455,2.759-3.956,2.759-4.023V52.4c0,1.6.8,2.36,2.427,2.36a2.092,2.092,0,0,0,2.394-2.36Zm45.325-2.427H198.162V33.281h23.97a2.106,2.106,0,0,0,2.394-2.36,2.126,2.126,0,0,0-2.394-2.427h-23.97V11.971h29.355a2.126,2.126,0,0,0,2.394-2.427,2.116,2.116,0,0,0-2.394-2.394H195.768a2.126,2.126,0,0,0-2.427,2.394v42.72a2.126,2.126,0,0,0,2.427,2.394h31.749a2.116,2.116,0,0,0,2.394-2.394A2.126,2.126,0,0,0,227.518,49.837ZM273.441,6.918a2.126,2.126,0,0,0-2.394,2.427V44.917L257.184,26.433,243.321,7.949a2.232,2.232,0,0,0-1.895-1.031,2.009,2.009,0,0,0-.8.166l.033-.033a2.213,2.213,0,0,0-1.629,2.327V52.264a2.394,2.394,0,1,0,4.787,0V16.626l27.76,37.035a2.186,2.186,0,0,0,1.828.964,2.223,2.223,0,0,0,.864-.166l-.033.033A2.226,2.226,0,0,0,275.9,52.2V9.345a2.136,2.136,0,0,0-2.427-2.427Zm46.455.1H287.781a2.126,2.126,0,0,0-2.427,2.394,2.136,2.136,0,0,0,2.427,2.427h13.63V52.563c0,1.6.8,2.36,2.427,2.36a2.092,2.092,0,0,0,2.394-2.36V11.838H319.9a2.136,2.136,0,0,0,2.427-2.427A2.126,2.126,0,0,0,319.9,7.018Z" transform="translate(18.653 1.582)" fill="#4c74a2" stroke="#4d75a3" stroke-width="1"/>
  <path id="Union_22" data-name="Union 22" d="M7383,8899.5v-10a2.5,2.5,0,0,1,2.5-2.5h10a2.5,2.5,0,0,1,0,5H7388v7.5a2.5,2.5,0,0,1-5,0Z" transform="translate(-7383 -8887)" fill="#314f72"/>
  <path id="Union_39" data-name="Union 39" d="M2.5,20A2.5,2.5,0,0,1,0,17.5V7.5a2.5,2.5,0,0,1,5,0V15h7.5a2.5,2.5,0,1,1,0,5Z" transform="translate(-0.001 64.001)" fill="#314f72"/>
  <rect id="Rectangle_273" data-name="Rectangle 273" width="99" height="84" rx="8" transform="translate(349.623)" fill="url(#linear-gradient)"/>
  <path id="Subtraction_75" data-name="Subtraction 75" d="M45,63.844h0l-13.445,0,10-10h3.451a20,20,0,1,0-.006-40v-10A30.008,30.008,0,0,1,56.677,61.486,29.784,29.784,0,0,1,45,63.844Zm-20.517,0H10v-10H34.485l-10,10ZM10,63.842H5a5.006,5.006,0,0,1-5-5v-26a5.006,5.006,0,0,1,5-5h5Zm0-26h0v-10H34l-7.888,10Zm14.4-24H5a5,5,0,1,1,0-10H34.4l-10,10Zm20.6,0H31.472l10-10H45v10Z" transform="translate(361.623 8.158)" fill="#fff"/>
  <rect id="Rectangle_282" data-name="Rectangle 282" width="99" height="84" rx="8" transform="translate(349.623)" fill="url(#linear-gradient)"/>
  <path id="Subtraction_80" data-name="Subtraction 80" d="M45,63.844h0l-13.445,0,10-10h3.451a20,20,0,1,0-.006-40v-10A30.008,30.008,0,0,1,56.677,61.486,29.784,29.784,0,0,1,45,63.844Zm-20.517,0H10v-10H34.485l-10,10ZM10,63.842H5a5.006,5.006,0,0,1-5-5v-50a5.006,5.006,0,0,1,5-5H34.4l-10,10H10Zm0-26h0v-10H34l-7.888,10Zm35-24H31.472l10-10H45v10Z" transform="translate(361.623 8.158)" fill="#fff"/>
  <text id="Experience_Learning_in_a_New_Dimension" data-name="Experience Learning in a New Dimension" transform="translate(20.623 77)" fill="#618fc5" font-size="17.5" font-family="Modulus-Bold, Modulus" font-weight="700"><tspan x="0" y="0">Experience Learning in a New Dimension</tspan></text>
</svg>
